<mxfile host="app.diagrams.net" modified="2022-03-02T03:54:14.975Z" agent="5.0 (Macintosh; Intel Mac OS X 10_15_7) AppleWebKit/537.36 (KHTML, like Gecko) Chrome/98.0.4758.109 Safari/537.36" etag="xWsUjrFXDeS_GJZYUGVC" version="16.6.4" type="github">
  <diagram id="T6XYbXPwt4N8Br0dNA_-" name="Page-1">
    <mxGraphModel dx="835" dy="1028" grid="1" gridSize="10" guides="1" tooltips="1" connect="1" arrows="1" fold="1" page="1" pageScale="1" pageWidth="827" pageHeight="1169" math="0" shadow="0">
      <root>
        <mxCell id="0" />
        <mxCell id="1" parent="0" />
        <mxCell id="IXn9KNIUYmLkCLyPq2oh-3" value="" style="rounded=0;whiteSpace=wrap;html=1;labelBackgroundColor=none;fillColor=none;dashed=1;container=1;pointerEvents=0;collapsible=0;recursiveResize=0;" vertex="1" parent="1">
          <mxGeometry x="310" y="230" width="480" height="430" as="geometry" />
        </mxCell>
        <mxCell id="IXn9KNIUYmLkCLyPq2oh-4" value="AWS Cloud" style="points=[[0,0],[0.25,0],[0.5,0],[0.75,0],[1,0],[1,0.25],[1,0.5],[1,0.75],[1,1],[0.75,1],[0.5,1],[0.25,1],[0,1],[0,0.75],[0,0.5],[0,0.25]];outlineConnect=0;gradientColor=none;html=1;whiteSpace=wrap;fontSize=12;fontStyle=0;shape=mxgraph.aws4.group;grIcon=mxgraph.aws4.group_aws_cloud_alt;strokeColor=#232F3E;fillColor=none;verticalAlign=top;align=left;spacingLeft=30;fontColor=#232F3E;dashed=0;labelBackgroundColor=#ffffff;container=1;pointerEvents=0;collapsible=0;recursiveResize=0;" vertex="1" parent="1">
          <mxGeometry x="20" y="20" width="780" height="650" as="geometry" />
        </mxCell>
        <mxCell id="IXn9KNIUYmLkCLyPq2oh-5" value="AWS Cloud" style="points=[[0,0],[0.25,0],[0.5,0],[0.75,0],[1,0],[1,0.25],[1,0.5],[1,0.75],[1,1],[0.75,1],[0.5,1],[0.25,1],[0,1],[0,0.75],[0,0.5],[0,0.25]];outlineConnect=0;gradientColor=none;html=1;whiteSpace=wrap;fontSize=12;fontStyle=0;shape=mxgraph.aws4.group;grIcon=mxgraph.aws4.group_aws_cloud_alt;strokeColor=#232F3E;fillColor=none;verticalAlign=top;align=left;spacingLeft=30;fontColor=#232F3E;dashed=0;labelBackgroundColor=#ffffff;container=1;pointerEvents=0;collapsible=0;recursiveResize=0;" vertex="1" parent="1">
          <mxGeometry x="820" y="20" width="270" height="650" as="geometry" />
        </mxCell>
        <mxCell id="IXn9KNIUYmLkCLyPq2oh-6" value="" style="edgeStyle=orthogonalEdgeStyle;rounded=0;orthogonalLoop=1;jettySize=auto;html=1;endArrow=open;endFill=0;strokeWidth=2;" edge="1" parent="1" source="IXn9KNIUYmLkCLyPq2oh-19" target="IXn9KNIUYmLkCLyPq2oh-20">
          <mxGeometry relative="1" as="geometry" />
        </mxCell>
        <mxCell id="IXn9KNIUYmLkCLyPq2oh-7" value="" style="edgeStyle=orthogonalEdgeStyle;rounded=0;orthogonalLoop=1;jettySize=auto;html=1;endArrow=open;endFill=0;strokeWidth=2;" edge="1" parent="1" source="IXn9KNIUYmLkCLyPq2oh-20" target="IXn9KNIUYmLkCLyPq2oh-22">
          <mxGeometry relative="1" as="geometry">
            <Array as="points">
              <mxPoint x="218" y="290" />
            </Array>
          </mxGeometry>
        </mxCell>
        <mxCell id="IXn9KNIUYmLkCLyPq2oh-8" style="edgeStyle=orthogonalEdgeStyle;rounded=0;orthogonalLoop=1;jettySize=auto;html=1;endArrow=open;endFill=0;strokeWidth=2;" edge="1" parent="1" source="IXn9KNIUYmLkCLyPq2oh-20" target="IXn9KNIUYmLkCLyPq2oh-21">
          <mxGeometry relative="1" as="geometry" />
        </mxCell>
        <mxCell id="IXn9KNIUYmLkCLyPq2oh-9" style="edgeStyle=orthogonalEdgeStyle;rounded=0;orthogonalLoop=1;jettySize=auto;html=1;endArrow=open;endFill=0;strokeWidth=2;" edge="1" parent="1" source="IXn9KNIUYmLkCLyPq2oh-21" target="IXn9KNIUYmLkCLyPq2oh-27">
          <mxGeometry relative="1" as="geometry" />
        </mxCell>
        <mxCell id="IXn9KNIUYmLkCLyPq2oh-10" value="" style="edgeStyle=orthogonalEdgeStyle;rounded=0;orthogonalLoop=1;jettySize=auto;html=1;endArrow=open;endFill=0;strokeWidth=2;" edge="1" parent="1" source="IXn9KNIUYmLkCLyPq2oh-22" target="IXn9KNIUYmLkCLyPq2oh-23">
          <mxGeometry relative="1" as="geometry" />
        </mxCell>
        <mxCell id="IXn9KNIUYmLkCLyPq2oh-11" value="" style="edgeStyle=orthogonalEdgeStyle;rounded=0;orthogonalLoop=1;jettySize=auto;html=1;endArrow=open;endFill=0;strokeWidth=2;" edge="1" parent="1" source="IXn9KNIUYmLkCLyPq2oh-23" target="IXn9KNIUYmLkCLyPq2oh-24">
          <mxGeometry relative="1" as="geometry" />
        </mxCell>
        <mxCell id="IXn9KNIUYmLkCLyPq2oh-12" value="" style="edgeStyle=orthogonalEdgeStyle;rounded=0;orthogonalLoop=1;jettySize=auto;html=1;endArrow=open;endFill=0;strokeWidth=2;" edge="1" parent="1" source="IXn9KNIUYmLkCLyPq2oh-24" target="IXn9KNIUYmLkCLyPq2oh-25">
          <mxGeometry relative="1" as="geometry" />
        </mxCell>
        <mxCell id="IXn9KNIUYmLkCLyPq2oh-13" style="edgeStyle=orthogonalEdgeStyle;rounded=0;orthogonalLoop=1;jettySize=auto;html=1;endArrow=open;endFill=0;strokeWidth=2;" edge="1" parent="1" source="IXn9KNIUYmLkCLyPq2oh-25" target="IXn9KNIUYmLkCLyPq2oh-28">
          <mxGeometry relative="1" as="geometry">
            <Array as="points">
              <mxPoint x="732" y="420" />
            </Array>
          </mxGeometry>
        </mxCell>
        <mxCell id="IXn9KNIUYmLkCLyPq2oh-14" value="Monitor template" style="edgeStyle=orthogonalEdgeStyle;rounded=0;orthogonalLoop=1;jettySize=auto;html=1;endArrow=open;endFill=0;strokeWidth=2;" edge="1" parent="1" source="IXn9KNIUYmLkCLyPq2oh-26" target="IXn9KNIUYmLkCLyPq2oh-23">
          <mxGeometry x="0.1208" y="-10" relative="1" as="geometry">
            <Array as="points">
              <mxPoint x="889" y="210" />
              <mxPoint x="489" y="210" />
            </Array>
            <mxPoint as="offset" />
          </mxGeometry>
        </mxCell>
        <mxCell id="IXn9KNIUYmLkCLyPq2oh-15" value="" style="edgeStyle=orthogonalEdgeStyle;rounded=0;orthogonalLoop=1;jettySize=auto;html=1;endArrow=open;endFill=0;strokeWidth=2;" edge="1" parent="1" source="IXn9KNIUYmLkCLyPq2oh-27" target="IXn9KNIUYmLkCLyPq2oh-26">
          <mxGeometry relative="1" as="geometry" />
        </mxCell>
        <mxCell id="IXn9KNIUYmLkCLyPq2oh-16" style="edgeStyle=orthogonalEdgeStyle;rounded=0;orthogonalLoop=1;jettySize=auto;html=1;endArrow=open;endFill=0;strokeWidth=2;startArrow=open;startFill=0;" edge="1" parent="1" source="IXn9KNIUYmLkCLyPq2oh-28" target="IXn9KNIUYmLkCLyPq2oh-29">
          <mxGeometry relative="1" as="geometry">
            <Array as="points">
              <mxPoint x="608" y="500" />
              <mxPoint x="498" y="500" />
            </Array>
          </mxGeometry>
        </mxCell>
        <mxCell id="IXn9KNIUYmLkCLyPq2oh-17" style="edgeStyle=orthogonalEdgeStyle;rounded=0;orthogonalLoop=1;jettySize=auto;html=1;endArrow=open;endFill=0;strokeWidth=2;startArrow=open;startFill=0;" edge="1" parent="1" source="IXn9KNIUYmLkCLyPq2oh-28" target="IXn9KNIUYmLkCLyPq2oh-30">
          <mxGeometry relative="1" as="geometry">
            <Array as="points">
              <mxPoint x="654" y="500" />
              <mxPoint x="829" y="500" />
            </Array>
          </mxGeometry>
        </mxCell>
        <mxCell id="IXn9KNIUYmLkCLyPq2oh-18" style="edgeStyle=orthogonalEdgeStyle;rounded=0;orthogonalLoop=1;jettySize=auto;html=1;endArrow=open;endFill=0;strokeWidth=2;" edge="1" parent="1" source="IXn9KNIUYmLkCLyPq2oh-29" target="IXn9KNIUYmLkCLyPq2oh-31">
          <mxGeometry relative="1" as="geometry" />
        </mxCell>
        <mxCell id="IXn9KNIUYmLkCLyPq2oh-19" value="Object" style="outlineConnect=0;fontColor=#232F3E;gradientColor=none;fillColor=#277116;strokeColor=none;dashed=0;verticalLabelPosition=bottom;verticalAlign=top;align=center;html=1;fontSize=12;fontStyle=0;aspect=fixed;pointerEvents=1;shape=mxgraph.aws4.object;labelBackgroundColor=#ffffff;" vertex="1" parent="1">
          <mxGeometry x="60" y="80" width="78" height="78" as="geometry" />
        </mxCell>
        <mxCell id="IXn9KNIUYmLkCLyPq2oh-20" value="Bucket" style="outlineConnect=0;fontColor=#232F3E;gradientColor=none;fillColor=#277116;strokeColor=none;dashed=0;verticalLabelPosition=bottom;verticalAlign=top;align=center;html=1;fontSize=12;fontStyle=0;aspect=fixed;pointerEvents=1;shape=mxgraph.aws4.bucket_with_objects;labelBackgroundColor=#ffffff;" vertex="1" parent="1">
          <mxGeometry x="180" y="80" width="75" height="78" as="geometry" />
        </mxCell>
        <mxCell id="IXn9KNIUYmLkCLyPq2oh-21" value="Bucket" style="outlineConnect=0;fontColor=#232F3E;gradientColor=none;fillColor=#277116;strokeColor=none;dashed=0;verticalLabelPosition=bottom;verticalAlign=top;align=center;html=1;fontSize=12;fontStyle=0;aspect=fixed;pointerEvents=1;shape=mxgraph.aws4.bucket_with_objects;labelBackgroundColor=#ffffff;" vertex="1" parent="1">
          <mxGeometry x="990" y="80" width="75" height="78" as="geometry" />
        </mxCell>
        <mxCell id="IXn9KNIUYmLkCLyPq2oh-22" value="AWS&lt;br&gt;CloudTrail" style="outlineConnect=0;fontColor=#232F3E;gradientColor=#F34482;gradientDirection=north;fillColor=#BC1356;strokeColor=#ffffff;dashed=0;verticalLabelPosition=bottom;verticalAlign=top;align=center;html=1;fontSize=12;fontStyle=0;aspect=fixed;shape=mxgraph.aws4.resourceIcon;resIcon=mxgraph.aws4.cloudtrail;labelBackgroundColor=#ffffff;" vertex="1" parent="1">
          <mxGeometry x="340" y="250" width="78" height="78" as="geometry" />
        </mxCell>
        <mxCell id="IXn9KNIUYmLkCLyPq2oh-23" value="Amazon&lt;br&gt;CloudWatch" style="outlineConnect=0;fontColor=#232F3E;gradientColor=#F34482;gradientDirection=north;fillColor=#BC1356;strokeColor=#ffffff;dashed=0;verticalLabelPosition=bottom;verticalAlign=top;align=center;html=1;fontSize=12;fontStyle=0;aspect=fixed;shape=mxgraph.aws4.resourceIcon;resIcon=mxgraph.aws4.cloudwatch;labelBackgroundColor=#ffffff;" vertex="1" parent="1">
          <mxGeometry x="450" y="250" width="78" height="78" as="geometry" />
        </mxCell>
        <mxCell id="IXn9KNIUYmLkCLyPq2oh-24" value="Amazon Simple&lt;br&gt;Notification Service&lt;br&gt;" style="outlineConnect=0;fontColor=#232F3E;gradientColor=#F34482;gradientDirection=north;fillColor=#BC1356;strokeColor=#ffffff;dashed=0;verticalLabelPosition=bottom;verticalAlign=top;align=center;html=1;fontSize=12;fontStyle=0;aspect=fixed;shape=mxgraph.aws4.resourceIcon;resIcon=mxgraph.aws4.sns;labelBackgroundColor=#ffffff;" vertex="1" parent="1">
          <mxGeometry x="570" y="250" width="78" height="78" as="geometry" />
        </mxCell>
        <mxCell id="IXn9KNIUYmLkCLyPq2oh-25" value="Amazon Simple&lt;br&gt;Queue Service&lt;br&gt;" style="outlineConnect=0;fontColor=#232F3E;gradientColor=#F34482;gradientDirection=north;fillColor=#BC1356;strokeColor=#ffffff;dashed=0;verticalLabelPosition=bottom;verticalAlign=top;align=center;html=1;fontSize=12;fontStyle=0;aspect=fixed;shape=mxgraph.aws4.resourceIcon;resIcon=mxgraph.aws4.sqs;labelBackgroundColor=#ffffff;" vertex="1" parent="1">
          <mxGeometry x="693" y="250" width="78" height="78" as="geometry" />
        </mxCell>
        <mxCell id="IXn9KNIUYmLkCLyPq2oh-26" value="Amazon&lt;br&gt;CloudWatch&lt;br&gt;" style="outlineConnect=0;fontColor=#232F3E;gradientColor=#F34482;gradientDirection=north;fillColor=#BC1356;strokeColor=#ffffff;dashed=0;verticalLabelPosition=bottom;verticalAlign=top;align=center;html=1;fontSize=12;fontStyle=0;aspect=fixed;shape=mxgraph.aws4.resourceIcon;resIcon=mxgraph.aws4.cloudwatch;labelBackgroundColor=#ffffff;" vertex="1" parent="1">
          <mxGeometry x="850" y="250" width="78" height="78" as="geometry" />
        </mxCell>
        <mxCell id="IXn9KNIUYmLkCLyPq2oh-27" value="AWS&lt;br&gt;CloudTrail" style="outlineConnect=0;fontColor=#232F3E;gradientColor=#F34482;gradientDirection=north;fillColor=#BC1356;strokeColor=#ffffff;dashed=0;verticalLabelPosition=bottom;verticalAlign=top;align=center;html=1;fontSize=12;fontStyle=0;aspect=fixed;shape=mxgraph.aws4.resourceIcon;resIcon=mxgraph.aws4.cloudtrail;labelBackgroundColor=#ffffff;" vertex="1" parent="1">
          <mxGeometry x="988.5" y="250" width="78" height="78" as="geometry" />
        </mxCell>
        <mxCell id="IXn9KNIUYmLkCLyPq2oh-28" value="AWS Lambda" style="outlineConnect=0;fontColor=#232F3E;gradientColor=#F78E04;gradientDirection=north;fillColor=#D05C17;strokeColor=#ffffff;dashed=0;verticalLabelPosition=bottom;verticalAlign=top;align=center;html=1;fontSize=12;fontStyle=0;aspect=fixed;shape=mxgraph.aws4.resourceIcon;resIcon=mxgraph.aws4.lambda;labelBackgroundColor=#ffffff;spacingTop=6;" vertex="1" parent="1">
          <mxGeometry x="569" y="390" width="78" height="78" as="geometry" />
        </mxCell>
        <mxCell id="IXn9KNIUYmLkCLyPq2oh-29" value="Amazon Kinesis&lt;br&gt;Data&amp;nbsp;Firehose" style="outlineConnect=0;fontColor=#232F3E;gradientColor=#945DF2;gradientDirection=north;fillColor=#5A30B5;strokeColor=#ffffff;dashed=0;verticalLabelPosition=bottom;verticalAlign=top;align=center;html=1;fontSize=12;fontStyle=0;aspect=fixed;shape=mxgraph.aws4.resourceIcon;resIcon=mxgraph.aws4.kinesis_data_firehose;labelBackgroundColor=#ffffff;" vertex="1" parent="1">
          <mxGeometry x="459" y="530" width="78" height="78" as="geometry" />
        </mxCell>
        <mxCell id="IXn9KNIUYmLkCLyPq2oh-30" value="Amazon&lt;br&gt;DynamoDB" style="outlineConnect=0;fontColor=#232F3E;gradientColor=#4D72F3;gradientDirection=north;fillColor=#3334B9;strokeColor=#ffffff;dashed=0;verticalLabelPosition=bottom;verticalAlign=top;align=center;html=1;fontSize=12;fontStyle=0;aspect=fixed;shape=mxgraph.aws4.resourceIcon;resIcon=mxgraph.aws4.dynamodb;labelBackgroundColor=#ffffff;" vertex="1" parent="1">
          <mxGeometry x="680" y="530" width="78" height="78" as="geometry" />
        </mxCell>
        <mxCell id="IXn9KNIUYmLkCLyPq2oh-31" value="Bucket" style="outlineConnect=0;fontColor=#232F3E;gradientColor=none;fillColor=#277116;strokeColor=none;dashed=0;verticalLabelPosition=bottom;verticalAlign=top;align=center;html=1;fontSize=12;fontStyle=0;aspect=fixed;pointerEvents=1;shape=mxgraph.aws4.bucket;labelBackgroundColor=#ffffff;" vertex="1" parent="1">
          <mxGeometry x="90" y="530" width="75" height="78" as="geometry" />
        </mxCell>
        <mxCell id="IXn9KNIUYmLkCLyPq2oh-32" value="" style="rounded=0;whiteSpace=wrap;html=1;labelBackgroundColor=none;fillColor=none;dashed=1;container=1;pointerEvents=0;collapsible=0;recursiveResize=0;" vertex="1" parent="1">
          <mxGeometry x="830" y="230" width="250" height="430" as="geometry" />
        </mxCell>
      </root>
    </mxGraphModel>
  </diagram>
</mxfile>
